<svg width="15" height="16" viewBox="0 0 15 16" fill="none" xmlns="http://www.w3.org/2000/svg">
<path d="M4.82143 15.5H1.60714C0.719866 15.5 0 14.7801 0 13.8929V2.10714C0 1.21987 0.719866 0.5 1.60714 0.5H4.82143C5.7087 0.5 6.42857 1.21987 6.42857 2.10714V13.8929C6.42857 14.7801 5.7087 15.5 4.82143 15.5ZM15 13.8929V2.10714C15 1.21987 14.2801 0.5 13.3929 0.5H10.1786C9.29129 0.5 8.57143 1.21987 8.57143 2.10714V13.8929C8.57143 14.7801 9.29129 15.5 10.1786 15.5H13.3929C14.2801 15.5 15 14.7801 15 13.8929Z" fill="black"/>
</svg>
